<svg xmlns="http://www.w3.org/2000/svg" xmlns:xlink="http://www.w3.org/1999/xlink" width="500" zoomAndPan="magnify" viewBox="0 0 375 374.999991" height="500" preserveAspectRatio="xMidYMid meet" version="1.0"><defs><g/><clipPath id="477debb841"><path d="M 1 45.300781 L 110 45.300781 L 110 329.550781 L 1 329.550781 Z M 1 45.300781 " clip-rule="nonzero"/></clipPath><clipPath id="1b3c7a6305"><path d="M 128 45.300781 L 236 45.300781 L 236 329.550781 L 128 329.550781 Z M 128 45.300781 " clip-rule="nonzero"/></clipPath><clipPath id="f3a5086637"><path d="M 254 45.300781 L 363 45.300781 L 363 329.550781 L 254 329.550781 Z M 254 45.300781 " clip-rule="nonzero"/></clipPath></defs><g clip-path="url(#477debb841)"><path fill="#3c3d37" d="M 93.359375 174.050781 C 93.359375 182.625 86.414062 189.59375 77.820312 189.59375 L 32.675781 189.59375 C 24.101562 189.59375 17.136719 182.625 17.136719 174.050781 L 17.136719 74.203125 C 17.136719 65.609375 24.101562 58.640625 32.675781 58.640625 L 77.820312 58.640625 C 86.414062 58.640625 93.359375 65.609375 93.359375 74.203125 Z M 55.246094 288.78125 C 43.234375 288.78125 33.492188 279.035156 33.492188 267.023438 C 33.492188 255.011719 43.234375 245.269531 55.246094 245.269531 C 67.261719 245.269531 77.003906 255.011719 77.003906 267.023438 C 77.003906 279.035156 67.261719 288.78125 55.246094 288.78125 Z M 98.914062 45.195312 L 11.605469 45.195312 C 5.984375 45.195312 1.445312 49.757812 1.445312 55.359375 L 1.445312 319.636719 C 1.445312 325.238281 5.984375 329.800781 11.605469 329.800781 L 98.914062 329.800781 C 104.511719 329.800781 109.074219 325.238281 109.074219 319.636719 L 109.074219 55.359375 C 109.074219 49.757812 104.511719 45.195312 98.914062 45.195312 " fill-opacity="1" fill-rule="nonzero"/></g><path fill="#3c3d37" d="M 68.9375 84.363281 L 41.582031 84.363281 C 30.914062 84.363281 30.890625 100.5 41.582031 100.5 L 68.9375 100.5 C 73.386719 100.5 77.003906 96.882812 77.003906 92.433594 C 77.003906 87.980469 73.386719 84.363281 68.9375 84.363281 " fill-opacity="1" fill-rule="nonzero"/><path fill="#3c3d37" d="M 68.9375 115.15625 L 41.582031 115.15625 C 30.914062 115.15625 30.890625 131.292969 41.582031 131.292969 L 68.9375 131.292969 C 73.386719 131.292969 77.003906 127.675781 77.003906 123.222656 C 77.003906 118.773438 73.386719 115.15625 68.9375 115.15625 " fill-opacity="1" fill-rule="nonzero"/><path fill="#3c3d37" d="M 68.9375 145.949219 L 41.582031 145.949219 C 30.914062 145.949219 30.890625 162.082031 41.582031 162.082031 L 68.9375 162.082031 C 73.386719 162.082031 77.003906 158.46875 77.003906 154.015625 C 77.003906 149.5625 73.386719 145.949219 68.9375 145.949219 " fill-opacity="1" fill-rule="nonzero"/><g clip-path="url(#1b3c7a6305)"><path fill="#3c3d37" d="M 220.121094 174.050781 C 220.121094 182.625 213.175781 189.59375 204.582031 189.59375 L 159.4375 189.59375 C 150.84375 189.59375 143.898438 182.625 143.898438 174.050781 L 143.898438 74.203125 C 143.898438 65.609375 150.84375 58.640625 159.4375 58.640625 L 204.582031 58.640625 C 213.175781 58.640625 220.121094 65.609375 220.121094 74.203125 Z M 182.007812 288.78125 C 169.996094 288.78125 160.253906 279.035156 160.253906 267.023438 C 160.253906 255.011719 169.996094 245.269531 182.007812 245.269531 C 194.023438 245.269531 203.765625 255.011719 203.765625 267.023438 C 203.765625 279.035156 194.023438 288.78125 182.007812 288.78125 Z M 225.652344 45.195312 L 138.367188 45.195312 C 132.746094 45.195312 128.207031 49.757812 128.207031 55.359375 L 128.207031 319.636719 C 128.207031 325.238281 132.746094 329.800781 138.367188 329.800781 L 225.652344 329.800781 C 231.273438 329.800781 235.8125 325.238281 235.8125 319.636719 L 235.8125 55.359375 C 235.8125 49.757812 231.273438 45.195312 225.652344 45.195312 " fill-opacity="1" fill-rule="nonzero"/></g><path fill="#3c3d37" d="M 195.675781 84.363281 L 168.34375 84.363281 C 157.652344 84.363281 157.652344 100.5 168.34375 100.5 L 195.675781 100.5 C 200.148438 100.5 203.765625 96.882812 203.765625 92.433594 C 203.765625 87.980469 200.148438 84.363281 195.675781 84.363281 " fill-opacity="1" fill-rule="nonzero"/><path fill="#3c3d37" d="M 195.675781 115.15625 L 168.34375 115.15625 C 157.652344 115.15625 157.652344 131.292969 168.34375 131.292969 L 195.675781 131.292969 C 200.148438 131.292969 203.765625 127.675781 203.765625 123.222656 C 203.765625 118.773438 200.148438 115.15625 195.675781 115.15625 " fill-opacity="1" fill-rule="nonzero"/><path fill="#3c3d37" d="M 195.675781 145.949219 L 168.34375 145.949219 C 157.652344 145.949219 157.652344 162.082031 168.34375 162.082031 L 195.675781 162.082031 C 200.148438 162.082031 203.765625 158.46875 203.765625 154.015625 C 203.765625 149.5625 200.148438 145.949219 195.675781 145.949219 " fill-opacity="1" fill-rule="nonzero"/><g clip-path="url(#f3a5086637)"><path fill="#3c3d37" d="M 346.882812 174.050781 C 346.882812 182.625 339.917969 189.59375 331.34375 189.59375 L 286.199219 189.59375 C 277.605469 189.59375 270.660156 182.625 270.660156 174.050781 L 270.660156 74.203125 C 270.660156 65.609375 277.605469 58.640625 286.199219 58.640625 L 331.34375 58.640625 C 339.917969 58.640625 346.882812 65.609375 346.882812 74.203125 Z M 308.769531 288.78125 C 296.757812 288.78125 287.015625 279.035156 287.015625 267.023438 C 287.015625 255.011719 296.757812 245.269531 308.769531 245.269531 C 320.785156 245.269531 330.527344 255.011719 330.527344 267.023438 C 330.527344 279.035156 320.785156 288.78125 308.769531 288.78125 Z M 352.414062 45.195312 L 265.105469 45.195312 C 259.507812 45.195312 254.945312 49.757812 254.945312 55.359375 L 254.945312 319.636719 C 254.945312 325.238281 259.507812 329.800781 265.105469 329.800781 L 352.414062 329.800781 C 358.035156 329.800781 362.574219 325.238281 362.574219 319.636719 L 362.574219 55.359375 C 362.574219 49.757812 358.035156 45.195312 352.414062 45.195312 " fill-opacity="1" fill-rule="nonzero"/></g><path fill="#3c3d37" d="M 322.4375 84.363281 L 295.082031 84.363281 C 284.414062 84.363281 284.414062 100.5 295.082031 100.5 L 322.4375 100.5 C 326.890625 100.5 330.527344 96.882812 330.527344 92.433594 C 330.527344 87.980469 326.890625 84.363281 322.4375 84.363281 " fill-opacity="1" fill-rule="nonzero"/><path fill="#3c3d37" d="M 322.4375 115.15625 L 295.082031 115.15625 C 284.414062 115.15625 284.414062 131.292969 295.082031 131.292969 L 322.4375 131.292969 C 326.890625 131.292969 330.527344 127.675781 330.527344 123.222656 C 330.527344 118.773438 326.890625 115.15625 322.4375 115.15625 " fill-opacity="1" fill-rule="nonzero"/><path fill="#3c3d37" d="M 322.4375 145.949219 L 295.082031 145.949219 C 284.414062 145.949219 284.414062 162.082031 295.082031 162.082031 L 322.4375 162.082031 C 326.890625 162.082031 330.527344 158.46875 330.527344 154.015625 C 330.527344 149.5625 326.890625 145.949219 322.4375 145.949219 " fill-opacity="1" fill-rule="nonzero"/><g fill="#3c3d37" fill-opacity="1"><g transform="translate(178.522942, 234.002667)"><g><path d="M 0.09375 -1.921875 L 1.59375 -1.921875 L 1.59375 -1.46875 L 1.3125 -1.46875 L 1.296875 -1.609375 L 0.625 -1.609375 L 0.625 -1.125 L 1.1875 -1.125 L 1.1875 -0.8125 L 0.625 -0.8125 L 0.625 -0.3125 L 0.765625 -0.3125 L 0.765625 0 L 0.09375 0 L 0.09375 -0.3125 L 0.21875 -0.3125 L 0.21875 -1.609375 L 0.09375 -1.609375 Z M 0.09375 -1.921875 "/></g></g></g><g fill="#3c3d37" fill-opacity="1"><g transform="translate(180.449085, 234.002667)"><g><path d="M 0.09375 -1.921875 L 0.765625 -1.921875 L 0.765625 -1.609375 L 0.625 -1.609375 L 0.625 -0.3125 L 0.765625 -0.3125 L 0.765625 0 L 0.09375 0 L 0.09375 -0.3125 L 0.21875 -0.3125 L 0.21875 -1.609375 L 0.09375 -1.609375 Z M 0.09375 -1.921875 "/></g></g></g><g fill="#3c3d37" fill-opacity="1"><g transform="translate(181.565168, 234.002667)"><g><path d="M 0.09375 -1.921875 L 0.765625 -1.921875 L 0.765625 -1.609375 L 0.625 -1.609375 L 0.625 -0.3125 L 1.296875 -0.3125 L 1.3125 -0.46875 L 1.59375 -0.46875 L 1.59375 0 L 0.09375 0 L 0.09375 -0.3125 L 0.21875 -0.3125 L 0.21875 -1.609375 L 0.09375 -1.609375 Z M 0.09375 -1.921875 "/></g></g></g><g fill="#3c3d37" fill-opacity="1"><g transform="translate(183.49131, 234.002667)"><g><path d="M 0.09375 -1.921875 L 1.59375 -1.921875 L 1.59375 -1.46875 L 1.3125 -1.46875 L 1.296875 -1.609375 L 0.625 -1.609375 L 0.625 -1.125 L 1.1875 -1.125 L 1.1875 -0.8125 L 0.625 -0.8125 L 0.625 -0.3125 L 1.296875 -0.3125 L 1.3125 -0.46875 L 1.59375 -0.46875 L 1.59375 0 L 0.09375 0 L 0.09375 -0.3125 L 0.21875 -0.3125 L 0.21875 -1.609375 L 0.09375 -1.609375 Z M 0.09375 -1.921875 "/></g></g></g><g fill="#3c3d37" fill-opacity="1"><g transform="translate(185.417452, 234.002667)"><g/></g></g><g fill="#3c3d37" fill-opacity="1"><g transform="translate(186.518531, 234.002667)"><g><path d="M 0.0625 -1.921875 L 0.78125 -1.921875 L 0.78125 -1.609375 L 0.625 -1.609375 L 0.96875 -0.53125 L 1.390625 -1.921875 L 1.78125 -1.921875 L 2.203125 -0.53125 L 2.5625 -1.609375 L 2.40625 -1.609375 L 2.40625 -1.921875 L 3.125 -1.921875 L 3.125 -1.609375 L 2.96875 -1.609375 L 2.421875 0 L 2.015625 0 L 1.59375 -1.5 L 1.15625 0 L 0.75 0 L 0.203125 -1.609375 L 0.0625 -1.609375 Z M 0.0625 -1.921875 "/></g></g></g><g fill="#3c3d37" fill-opacity="1"><g transform="translate(189.968785, 234.002667)"><g><path d="M 0.875 -1.921875 L 1.28125 -1.921875 L 1.953125 -0.3125 L 2.09375 -0.3125 L 2.09375 0 L 1.390625 0 L 1.390625 -0.3125 L 1.53125 -0.3125 L 1.421875 -0.640625 L 0.734375 -0.640625 L 0.625 -0.3125 L 0.78125 -0.3125 L 0.78125 0 L 0.0625 0 L 0.0625 -0.3125 L 0.203125 -0.3125 Z M 0.84375 -0.90625 L 1.3125 -0.90625 L 1.078125 -1.5625 Z M 0.84375 -0.90625 "/></g></g></g><g fill="#3c3d37" fill-opacity="1"><g transform="translate(192.395965, 234.002667)"><g><path d="M 0.0625 -1.921875 L 0.78125 -1.921875 L 0.78125 -1.609375 L 0.625 -1.609375 L 1.078125 -0.4375 L 1.53125 -1.609375 L 1.390625 -1.609375 L 1.390625 -1.921875 L 2.09375 -1.921875 L 2.09375 -1.609375 L 1.953125 -1.609375 L 1.28125 0 L 0.875 0 L 0.203125 -1.609375 L 0.0625 -1.609375 Z M 0.0625 -1.921875 "/></g></g></g><g fill="#3c3d37" fill-opacity="1"><g transform="translate(194.823144, 234.002667)"><g><path d="M 0.09375 -1.921875 L 1.59375 -1.921875 L 1.59375 -1.46875 L 1.3125 -1.46875 L 1.296875 -1.609375 L 0.625 -1.609375 L 0.625 -1.125 L 1.1875 -1.125 L 1.1875 -0.8125 L 0.625 -0.8125 L 0.625 -0.3125 L 1.296875 -0.3125 L 1.3125 -0.46875 L 1.59375 -0.46875 L 1.59375 0 L 0.09375 0 L 0.09375 -0.3125 L 0.21875 -0.3125 L 0.21875 -1.609375 L 0.09375 -1.609375 Z M 0.09375 -1.921875 "/></g></g></g></svg>