<svg xmlns="http://www.w3.org/2000/svg" xmlns:xlink="http://www.w3.org/1999/xlink" width="500" zoomAndPan="magnify" viewBox="0 0 375 374.999991" height="500" preserveAspectRatio="xMidYMid meet" version="1.0"><defs><g/><clipPath id="21e4c5b7a9"><path d="M 13 5.78125 L 119 5.78125 L 119 283.28125 L 13 283.28125 Z M 13 5.78125 " clip-rule="nonzero"/></clipPath><clipPath id="ca8ef2f834"><path d="M 137 5.78125 L 243 5.78125 L 243 283.28125 L 137 283.28125 Z M 137 5.78125 " clip-rule="nonzero"/></clipPath><clipPath id="f60ac837a4"><path d="M 260 5.78125 L 366 5.78125 L 366 283.28125 L 260 283.28125 Z M 260 5.78125 " clip-rule="nonzero"/></clipPath></defs><g clip-path="url(#21e4c5b7a9)"><path fill="#3c3d37" d="M 103.191406 131.414062 C 103.191406 139.78125 96.417969 146.574219 88.03125 146.574219 L 43.980469 146.574219 C 35.617188 146.574219 28.820312 139.78125 28.820312 131.414062 L 28.820312 33.984375 C 28.820312 25.597656 35.617188 18.800781 43.980469 18.800781 L 88.03125 18.800781 C 96.417969 18.800781 103.191406 25.597656 103.191406 33.984375 Z M 66.003906 243.359375 C 54.285156 243.359375 44.777344 233.855469 44.777344 222.132812 C 44.777344 210.410156 54.285156 200.90625 66.003906 200.90625 C 77.726562 200.90625 87.234375 210.410156 87.234375 222.132812 C 87.234375 233.855469 77.726562 243.359375 66.003906 243.359375 Z M 108.613281 5.679688 L 23.421875 5.679688 C 17.9375 5.679688 13.503906 10.132812 13.503906 15.59375 L 13.503906 273.472656 C 13.503906 278.933594 17.9375 283.386719 23.421875 283.386719 L 108.613281 283.386719 C 114.074219 283.386719 118.527344 278.933594 118.527344 273.472656 L 118.527344 15.59375 C 118.527344 10.132812 114.074219 5.679688 108.613281 5.679688 " fill-opacity="1" fill-rule="nonzero"/></g><path fill="#3c3d37" d="M 79.363281 43.898438 L 52.671875 43.898438 C 42.261719 43.898438 42.238281 59.640625 52.671875 59.640625 L 79.363281 59.640625 C 83.707031 59.640625 87.234375 56.113281 87.234375 51.769531 C 87.234375 47.425781 83.707031 43.898438 79.363281 43.898438 " fill-opacity="1" fill-rule="nonzero"/><path fill="#3c3d37" d="M 79.363281 73.945312 L 52.671875 73.945312 C 42.261719 73.945312 42.238281 89.6875 52.671875 89.6875 L 79.363281 89.6875 C 83.707031 89.6875 87.234375 86.160156 87.234375 81.816406 C 87.234375 77.472656 83.707031 73.945312 79.363281 73.945312 " fill-opacity="1" fill-rule="nonzero"/><path fill="#3c3d37" d="M 79.363281 103.992188 L 52.671875 103.992188 C 42.261719 103.992188 42.238281 119.734375 52.671875 119.734375 L 79.363281 119.734375 C 83.707031 119.734375 87.234375 116.207031 87.234375 111.863281 C 87.234375 107.519531 83.707031 103.992188 79.363281 103.992188 " fill-opacity="1" fill-rule="nonzero"/><g clip-path="url(#ca8ef2f834)"><path fill="#3c3d37" d="M 226.882812 131.414062 C 226.882812 139.78125 220.109375 146.574219 211.71875 146.574219 L 167.671875 146.574219 C 159.285156 146.574219 152.507812 139.78125 152.507812 131.414062 L 152.507812 33.984375 C 152.507812 25.597656 159.285156 18.800781 167.671875 18.800781 L 211.71875 18.800781 C 220.109375 18.800781 226.882812 25.597656 226.882812 33.984375 Z M 189.695312 243.359375 C 177.972656 243.359375 168.46875 233.855469 168.46875 222.132812 C 168.46875 210.410156 177.972656 200.90625 189.695312 200.90625 C 201.417969 200.90625 210.925781 210.410156 210.925781 222.132812 C 210.925781 233.855469 201.417969 243.359375 189.695312 243.359375 Z M 232.28125 5.679688 L 147.109375 5.679688 C 141.625 5.679688 137.195312 10.132812 137.195312 15.59375 L 137.195312 273.472656 C 137.195312 278.933594 141.625 283.386719 147.109375 283.386719 L 232.28125 283.386719 C 237.765625 283.386719 242.195312 278.933594 242.195312 273.472656 L 242.195312 15.59375 C 242.195312 10.132812 237.765625 5.679688 232.28125 5.679688 " fill-opacity="1" fill-rule="nonzero"/></g><path fill="#3c3d37" d="M 203.03125 43.898438 L 176.363281 43.898438 C 165.929688 43.898438 165.929688 59.640625 176.363281 59.640625 L 203.03125 59.640625 C 207.398438 59.640625 210.925781 56.113281 210.925781 51.769531 C 210.925781 47.425781 207.398438 43.898438 203.03125 43.898438 " fill-opacity="1" fill-rule="nonzero"/><path fill="#3c3d37" d="M 203.03125 73.945312 L 176.363281 73.945312 C 165.929688 73.945312 165.929688 89.6875 176.363281 89.6875 L 203.03125 89.6875 C 207.398438 89.6875 210.925781 86.160156 210.925781 81.816406 C 210.925781 77.472656 207.398438 73.945312 203.03125 73.945312 " fill-opacity="1" fill-rule="nonzero"/><path fill="#3c3d37" d="M 203.03125 103.992188 L 176.363281 103.992188 C 165.929688 103.992188 165.929688 119.734375 176.363281 119.734375 L 203.03125 119.734375 C 207.398438 119.734375 210.925781 116.207031 210.925781 111.863281 C 210.925781 107.519531 207.398438 103.992188 203.03125 103.992188 " fill-opacity="1" fill-rule="nonzero"/><g clip-path="url(#f60ac837a4)"><path fill="#3c3d37" d="M 350.574219 131.414062 C 350.574219 139.78125 343.777344 146.574219 335.410156 146.574219 L 291.363281 146.574219 C 282.976562 146.574219 276.199219 139.78125 276.199219 131.414062 L 276.199219 33.984375 C 276.199219 25.597656 282.976562 18.800781 291.363281 18.800781 L 335.410156 18.800781 C 343.777344 18.800781 350.574219 25.597656 350.574219 33.984375 Z M 313.386719 243.359375 C 301.664062 243.359375 292.160156 233.855469 292.160156 222.132812 C 292.160156 210.410156 301.664062 200.90625 313.386719 200.90625 C 325.109375 200.90625 334.613281 210.410156 334.613281 222.132812 C 334.613281 233.855469 325.109375 243.359375 313.386719 243.359375 Z M 355.972656 5.679688 L 270.78125 5.679688 C 265.316406 5.679688 260.863281 10.132812 260.863281 15.59375 L 260.863281 273.472656 C 260.863281 278.933594 265.316406 283.386719 270.78125 283.386719 L 355.972656 283.386719 C 361.457031 283.386719 365.886719 278.933594 365.886719 273.472656 L 365.886719 15.59375 C 365.886719 10.132812 361.457031 5.679688 355.972656 5.679688 " fill-opacity="1" fill-rule="nonzero"/></g><path fill="#3c3d37" d="M 326.722656 43.898438 L 300.03125 43.898438 C 289.621094 43.898438 289.621094 59.640625 300.03125 59.640625 L 326.722656 59.640625 C 331.066406 59.640625 334.613281 56.113281 334.613281 51.769531 C 334.613281 47.425781 331.066406 43.898438 326.722656 43.898438 " fill-opacity="1" fill-rule="nonzero"/><path fill="#3c3d37" d="M 326.722656 73.945312 L 300.03125 73.945312 C 289.621094 73.945312 289.621094 89.6875 300.03125 89.6875 L 326.722656 89.6875 C 331.066406 89.6875 334.613281 86.160156 334.613281 81.816406 C 334.613281 77.472656 331.066406 73.945312 326.722656 73.945312 " fill-opacity="1" fill-rule="nonzero"/><path fill="#3c3d37" d="M 326.722656 103.992188 L 300.03125 103.992188 C 289.621094 103.992188 289.621094 119.734375 300.03125 119.734375 L 326.722656 119.734375 C 331.066406 119.734375 334.613281 116.207031 334.613281 111.863281 C 334.613281 107.519531 331.066406 103.992188 326.722656 103.992188 " fill-opacity="1" fill-rule="nonzero"/><g fill="#3c3d37" fill-opacity="1"><g transform="translate(22.962694, 328.042186)"><g><path d="M 1.59375 -35.25 L 29.3125 -35.25 L 29.3125 -26.78125 L 24.203125 -26.78125 L 23.875 -29.59375 L 11.4375 -29.59375 L 11.4375 -20.515625 L 21.71875 -20.515625 L 21.71875 -14.796875 L 11.4375 -14.796875 L 11.4375 -5.78125 L 13.921875 -5.78125 L 13.921875 0 L 1.59375 0 L 1.59375 -5.78125 L 4.0625 -5.78125 L 4.0625 -29.59375 L 1.59375 -29.59375 Z M 1.59375 -35.25 "/></g></g></g><g fill="#3c3d37" fill-opacity="1"><g transform="translate(58.27041, 328.042186)"><g><path d="M 1.59375 -35.3125 L 13.921875 -35.25 L 13.921875 -29.53125 L 11.4375 -29.59375 L 11.4375 -5.78125 L 13.921875 -5.78125 L 13.921875 0 L 1.59375 0 L 1.59375 -5.78125 L 4.0625 -5.78125 L 4.0625 -29.59375 L 1.59375 -29.59375 Z M 1.59375 -35.3125 "/></g></g></g><g fill="#3c3d37" fill-opacity="1"><g transform="translate(78.729201, 328.042186)"><g><path d="M 1.59375 -35.25 L 13.921875 -35.25 L 13.921875 -29.59375 L 11.4375 -29.59375 L 11.4375 -5.78125 L 23.875 -5.78125 L 24.203125 -8.53125 L 29.3125 -8.53125 L 29.3125 0 L 1.59375 0 L 1.59375 -5.78125 L 4.0625 -5.78125 L 4.0625 -29.59375 L 1.59375 -29.59375 Z M 1.59375 -35.25 "/></g></g></g><g fill="#3c3d37" fill-opacity="1"><g transform="translate(114.036917, 328.042186)"><g><path d="M 1.59375 -35.25 L 29.3125 -35.25 L 29.3125 -26.78125 L 24.203125 -26.78125 L 23.875 -29.59375 L 11.4375 -29.59375 L 11.4375 -20.515625 L 21.71875 -20.515625 L 21.71875 -14.796875 L 11.4375 -14.796875 L 11.4375 -5.78125 L 23.875 -5.78125 L 24.203125 -8.53125 L 29.3125 -8.53125 L 29.3125 0 L 1.59375 0 L 1.59375 -5.78125 L 4.0625 -5.78125 L 4.0625 -29.59375 L 1.59375 -29.59375 Z M 1.59375 -35.25 "/></g></g></g><g fill="#3c3d37" fill-opacity="1"><g transform="translate(149.344633, 328.042186)"><g/></g></g><g fill="#3c3d37" fill-opacity="1"><g transform="translate(169.52845, 328.042186)"><g><path d="M 1.046875 -35.25 L 14.1875 -35.25 L 14.1875 -29.59375 L 11.328125 -29.59375 L 17.875 -9.625 L 25.40625 -35.25 L 32.78125 -35.25 L 40.375 -9.625 L 46.921875 -29.59375 L 44.0625 -29.59375 L 44.0625 -35.25 L 57.203125 -35.25 L 57.203125 -29.59375 L 54.5625 -29.59375 L 44.4375 0 L 36.90625 0 L 29.15625 -27.5 L 21.28125 0 L 13.8125 0 L 3.625 -29.59375 L 1.046875 -29.59375 Z M 1.046875 -35.25 "/></g></g></g><g fill="#3c3d37" fill-opacity="1"><g transform="translate(232.774128, 328.042186)"><g><path d="M 16 -35.25 L 23.484375 -35.25 L 35.859375 -5.78125 L 38.5 -5.78125 L 38.5 0 L 25.359375 0 L 25.359375 -5.78125 L 28.15625 -5.78125 L 26.015625 -11.609375 L 13.46875 -11.609375 L 11.328125 -5.78125 L 14.1875 -5.78125 L 14.1875 0 L 1.046875 0 L 1.046875 -5.78125 L 3.625 -5.78125 Z M 15.34375 -16.71875 L 24.140625 -16.71875 L 19.75 -28.703125 Z M 15.34375 -16.71875 "/></g></g></g><g fill="#3c3d37" fill-opacity="1"><g transform="translate(277.266167, 328.042186)"><g><path d="M 1.046875 -35.25 L 14.1875 -35.25 L 14.1875 -29.59375 L 11.328125 -29.59375 L 19.75 -8.140625 L 28.21875 -29.59375 L 25.359375 -29.59375 L 25.359375 -35.25 L 38.5 -35.25 L 38.5 -29.59375 L 35.859375 -29.59375 L 23.484375 0 L 16 0 L 3.625 -29.59375 L 1.046875 -29.59375 Z M 1.046875 -35.25 "/></g></g></g><g fill="#3c3d37" fill-opacity="1"><g transform="translate(321.758207, 328.042186)"><g><path d="M 1.59375 -35.25 L 29.3125 -35.25 L 29.3125 -26.78125 L 24.203125 -26.78125 L 23.875 -29.59375 L 11.4375 -29.59375 L 11.4375 -20.515625 L 21.71875 -20.515625 L 21.71875 -14.796875 L 11.4375 -14.796875 L 11.4375 -5.78125 L 23.875 -5.78125 L 24.203125 -8.53125 L 29.3125 -8.53125 L 29.3125 0 L 1.59375 0 L 1.59375 -5.78125 L 4.0625 -5.78125 L 4.0625 -29.59375 L 1.59375 -29.59375 Z M 1.59375 -35.25 "/></g></g></g></svg>