<svg xmlns="http://www.w3.org/2000/svg" xmlns:xlink="http://www.w3.org/1999/xlink" width="500" zoomAndPan="magnify" viewBox="0 0 375 374.999991" height="500" preserveAspectRatio="xMidYMid meet" version="1.0"><defs><g/><clipPath id="d6413f500d"><path d="M 16 12.894531 L 119 12.894531 L 119 282.894531 L 16 282.894531 Z M 16 12.894531 " clip-rule="nonzero"/></clipPath><clipPath id="672bbd0e5a"><path d="M 136 12.894531 L 239 12.894531 L 239 282.894531 L 136 282.894531 Z M 136 12.894531 " clip-rule="nonzero"/></clipPath><clipPath id="6a31af9064"><path d="M 256 12.894531 L 359 12.894531 L 359 282.894531 L 256 282.894531 Z M 256 12.894531 " clip-rule="nonzero"/></clipPath></defs><g clip-path="url(#d6413f500d)"><path fill="#fcfefe" d="M 103.34375 135.113281 C 103.34375 143.253906 96.753906 149.867188 88.59375 149.867188 L 45.742188 149.867188 C 37.601562 149.867188 30.992188 143.253906 30.992188 135.113281 L 30.992188 40.332031 C 30.992188 32.171875 37.601562 25.558594 45.742188 25.558594 L 88.59375 25.558594 C 96.753906 25.558594 103.34375 32.171875 103.34375 40.332031 Z M 67.167969 244.023438 C 55.765625 244.023438 46.515625 234.773438 46.515625 223.371094 C 46.515625 211.96875 55.765625 202.71875 67.167969 202.71875 C 78.570312 202.71875 87.820312 211.96875 87.820312 223.371094 C 87.820312 234.773438 78.570312 244.023438 67.167969 244.023438 Z M 108.617188 12.796875 L 25.738281 12.796875 C 20.402344 12.796875 16.09375 17.125 16.09375 22.441406 L 16.09375 273.316406 C 16.09375 278.628906 20.402344 282.960938 25.738281 282.960938 L 108.617188 282.960938 C 113.933594 282.960938 118.261719 278.628906 118.261719 273.316406 L 118.261719 22.441406 C 118.261719 17.125 113.933594 12.796875 108.617188 12.796875 " fill-opacity="1" fill-rule="nonzero"/></g><path fill="#fcfefe" d="M 80.160156 49.976562 L 54.195312 49.976562 C 44.066406 49.976562 44.046875 65.292969 54.195312 65.292969 L 80.160156 65.292969 C 84.386719 65.292969 87.820312 61.859375 87.820312 57.632812 C 87.820312 53.40625 84.386719 49.976562 80.160156 49.976562 " fill-opacity="1" fill-rule="nonzero"/><path fill="#fcfefe" d="M 80.160156 79.207031 L 54.195312 79.207031 C 44.066406 79.207031 44.046875 94.523438 54.195312 94.523438 L 80.160156 94.523438 C 84.386719 94.523438 87.820312 91.089844 87.820312 86.863281 C 87.820312 82.636719 84.386719 79.207031 80.160156 79.207031 " fill-opacity="1" fill-rule="nonzero"/><path fill="#fcfefe" d="M 80.160156 108.4375 L 54.195312 108.4375 C 44.066406 108.4375 44.046875 123.753906 54.195312 123.753906 L 80.160156 123.753906 C 84.386719 123.753906 87.820312 120.320312 87.820312 116.09375 C 87.820312 111.867188 84.386719 108.4375 80.160156 108.4375 " fill-opacity="1" fill-rule="nonzero"/><g clip-path="url(#672bbd0e5a)"><path fill="#fcfefe" d="M 223.675781 135.113281 C 223.675781 143.253906 217.085938 149.867188 208.925781 149.867188 L 166.074219 149.867188 C 157.914062 149.867188 151.320312 143.253906 151.320312 135.113281 L 151.320312 40.332031 C 151.320312 32.171875 157.914062 25.558594 166.074219 25.558594 L 208.925781 25.558594 C 217.085938 25.558594 223.675781 32.171875 223.675781 40.332031 Z M 187.5 244.023438 C 176.097656 244.023438 166.847656 234.773438 166.847656 223.371094 C 166.847656 211.96875 176.097656 202.71875 187.5 202.71875 C 198.902344 202.71875 208.152344 211.96875 208.152344 223.371094 C 208.152344 234.773438 198.902344 244.023438 187.5 244.023438 Z M 228.929688 12.796875 L 146.070312 12.796875 C 140.734375 12.796875 136.425781 17.125 136.425781 22.441406 L 136.425781 273.316406 C 136.425781 278.628906 140.734375 282.960938 146.070312 282.960938 L 228.929688 282.960938 C 234.261719 282.960938 238.574219 278.628906 238.574219 273.316406 L 238.574219 22.441406 C 238.574219 17.125 234.261719 12.796875 228.929688 12.796875 " fill-opacity="1" fill-rule="nonzero"/></g><path fill="#fcfefe" d="M 200.472656 49.976562 L 174.527344 49.976562 C 164.378906 49.976562 164.378906 65.292969 174.527344 65.292969 L 200.472656 65.292969 C 204.71875 65.292969 208.152344 61.859375 208.152344 57.632812 C 208.152344 53.40625 204.71875 49.976562 200.472656 49.976562 " fill-opacity="1" fill-rule="nonzero"/><path fill="#fcfefe" d="M 200.472656 79.207031 L 174.527344 79.207031 C 164.378906 79.207031 164.378906 94.523438 174.527344 94.523438 L 200.472656 94.523438 C 204.71875 94.523438 208.152344 91.089844 208.152344 86.863281 C 208.152344 82.636719 204.71875 79.207031 200.472656 79.207031 " fill-opacity="1" fill-rule="nonzero"/><path fill="#fcfefe" d="M 200.472656 108.4375 L 174.527344 108.4375 C 164.378906 108.4375 164.378906 123.753906 174.527344 123.753906 L 200.472656 123.753906 C 204.71875 123.753906 208.152344 120.320312 208.152344 116.09375 C 208.152344 111.867188 204.71875 108.4375 200.472656 108.4375 " fill-opacity="1" fill-rule="nonzero"/><g clip-path="url(#6a31af9064)"><path fill="#fcfefe" d="M 344.007812 135.113281 C 344.007812 143.253906 337.394531 149.867188 329.257812 149.867188 L 286.40625 149.867188 C 278.246094 149.867188 271.652344 143.253906 271.652344 135.113281 L 271.652344 40.332031 C 271.652344 32.171875 278.246094 25.558594 286.40625 25.558594 L 329.257812 25.558594 C 337.394531 25.558594 344.007812 32.171875 344.007812 40.332031 Z M 307.832031 244.023438 C 296.425781 244.023438 287.179688 234.773438 287.179688 223.371094 C 287.179688 211.96875 296.425781 202.71875 307.832031 202.71875 C 319.234375 202.71875 328.480469 211.96875 328.480469 223.371094 C 328.480469 234.773438 319.234375 244.023438 307.832031 244.023438 Z M 349.257812 12.796875 L 266.382812 12.796875 C 261.066406 12.796875 256.734375 17.125 256.734375 22.441406 L 256.734375 273.316406 C 256.734375 278.628906 261.066406 282.960938 266.382812 282.960938 L 349.257812 282.960938 C 354.59375 282.960938 358.90625 278.628906 358.90625 273.316406 L 358.90625 22.441406 C 358.90625 17.125 354.59375 12.796875 349.257812 12.796875 " fill-opacity="1" fill-rule="nonzero"/></g><path fill="#fcfefe" d="M 320.804688 49.976562 L 294.835938 49.976562 C 284.710938 49.976562 284.710938 65.292969 294.835938 65.292969 L 320.804688 65.292969 C 325.03125 65.292969 328.480469 61.859375 328.480469 57.632812 C 328.480469 53.40625 325.03125 49.976562 320.804688 49.976562 " fill-opacity="1" fill-rule="nonzero"/><path fill="#fcfefe" d="M 320.804688 79.207031 L 294.835938 79.207031 C 284.710938 79.207031 284.710938 94.523438 294.835938 94.523438 L 320.804688 94.523438 C 325.03125 94.523438 328.480469 91.089844 328.480469 86.863281 C 328.480469 82.636719 325.03125 79.207031 320.804688 79.207031 " fill-opacity="1" fill-rule="nonzero"/><path fill="#fcfefe" d="M 320.804688 108.4375 L 294.835938 108.4375 C 284.710938 108.4375 284.710938 123.753906 294.835938 123.753906 L 320.804688 123.753906 C 325.03125 123.753906 328.480469 120.320312 328.480469 116.09375 C 328.480469 111.867188 325.03125 108.4375 320.804688 108.4375 " fill-opacity="1" fill-rule="nonzero"/><g fill="#fcfefe" fill-opacity="1"><g transform="translate(58.867739, 326.502576)"><g><path d="M 1.25 -27.5625 L 22.921875 -27.5625 L 22.921875 -20.9375 L 18.921875 -20.9375 L 18.65625 -23.140625 L 8.9375 -23.140625 L 8.9375 -16.03125 L 16.984375 -16.03125 L 16.984375 -11.5625 L 8.9375 -11.5625 L 8.9375 -4.515625 L 10.875 -4.515625 L 10.875 0 L 1.25 0 L 1.25 -4.515625 L 3.1875 -4.515625 L 3.1875 -23.140625 L 1.25 -23.140625 Z M 1.25 -27.5625 "/></g></g></g><g fill="#fcfefe" fill-opacity="1"><g transform="translate(86.471561, 326.502576)"><g><path d="M 1.25 -27.609375 L 10.875 -27.5625 L 10.875 -23.09375 L 8.9375 -23.140625 L 8.9375 -4.515625 L 10.875 -4.515625 L 10.875 0 L 1.25 0 L 1.25 -4.515625 L 3.1875 -4.515625 L 3.1875 -23.140625 L 1.25 -23.140625 Z M 1.25 -27.609375 "/></g></g></g><g fill="#fcfefe" fill-opacity="1"><g transform="translate(102.466429, 326.502576)"><g><path d="M 1.25 -27.5625 L 10.875 -27.5625 L 10.875 -23.140625 L 8.9375 -23.140625 L 8.9375 -4.515625 L 18.65625 -4.515625 L 18.921875 -6.671875 L 22.921875 -6.671875 L 22.921875 0 L 1.25 0 L 1.25 -4.515625 L 3.1875 -4.515625 L 3.1875 -23.140625 L 1.25 -23.140625 Z M 1.25 -27.5625 "/></g></g></g><g fill="#fcfefe" fill-opacity="1"><g transform="translate(130.070251, 326.502576)"><g><path d="M 1.25 -27.5625 L 22.921875 -27.5625 L 22.921875 -20.9375 L 18.921875 -20.9375 L 18.65625 -23.140625 L 8.9375 -23.140625 L 8.9375 -16.03125 L 16.984375 -16.03125 L 16.984375 -11.5625 L 8.9375 -11.5625 L 8.9375 -4.515625 L 18.65625 -4.515625 L 18.921875 -6.671875 L 22.921875 -6.671875 L 22.921875 0 L 1.25 0 L 1.25 -4.515625 L 3.1875 -4.515625 L 3.1875 -23.140625 L 1.25 -23.140625 Z M 1.25 -27.5625 "/></g></g></g><g fill="#fcfefe" fill-opacity="1"><g transform="translate(157.674074, 326.502576)"><g/></g></g><g fill="#fcfefe" fill-opacity="1"><g transform="translate(173.453954, 326.502576)"><g><path d="M 0.8125 -27.5625 L 11.09375 -27.5625 L 11.09375 -23.140625 L 8.859375 -23.140625 L 13.96875 -7.53125 L 19.859375 -27.5625 L 25.625 -27.5625 L 31.5625 -7.53125 L 36.671875 -23.140625 L 34.4375 -23.140625 L 34.4375 -27.5625 L 44.71875 -27.5625 L 44.71875 -23.140625 L 42.65625 -23.140625 L 34.75 0 L 28.859375 0 L 22.796875 -21.5 L 16.640625 0 L 10.796875 0 L 2.84375 -23.140625 L 0.8125 -23.140625 Z M 0.8125 -27.5625 "/></g></g></g><g fill="#fcfefe" fill-opacity="1"><g transform="translate(222.899831, 326.502576)"><g><path d="M 12.515625 -27.5625 L 18.359375 -27.5625 L 28.03125 -4.515625 L 30.09375 -4.515625 L 30.09375 0 L 19.828125 0 L 19.828125 -4.515625 L 22.015625 -4.515625 L 20.34375 -9.078125 L 10.53125 -9.078125 L 8.859375 -4.515625 L 11.09375 -4.515625 L 11.09375 0 L 0.8125 0 L 0.8125 -4.515625 L 2.84375 -4.515625 Z M 12 -13.078125 L 18.875 -13.078125 L 15.4375 -22.453125 Z M 12 -13.078125 "/></g></g></g><g fill="#fcfefe" fill-opacity="1"><g transform="translate(257.684008, 326.502576)"><g><path d="M 0.8125 -27.5625 L 11.09375 -27.5625 L 11.09375 -23.140625 L 8.859375 -23.140625 L 15.4375 -6.359375 L 22.0625 -23.140625 L 19.828125 -23.140625 L 19.828125 -27.5625 L 30.09375 -27.5625 L 30.09375 -23.140625 L 28.03125 -23.140625 L 18.359375 0 L 12.515625 0 L 2.84375 -23.140625 L 0.8125 -23.140625 Z M 0.8125 -27.5625 "/></g></g></g><g fill="#fcfefe" fill-opacity="1"><g transform="translate(292.468186, 326.502576)"><g><path d="M 1.25 -27.5625 L 22.921875 -27.5625 L 22.921875 -20.9375 L 18.921875 -20.9375 L 18.65625 -23.140625 L 8.9375 -23.140625 L 8.9375 -16.03125 L 16.984375 -16.03125 L 16.984375 -11.5625 L 8.9375 -11.5625 L 8.9375 -4.515625 L 18.65625 -4.515625 L 18.921875 -6.671875 L 22.921875 -6.671875 L 22.921875 0 L 1.25 0 L 1.25 -4.515625 L 3.1875 -4.515625 L 3.1875 -23.140625 L 1.25 -23.140625 Z M 1.25 -27.5625 "/></g></g></g></svg>